<svg width="20" height="20" viewBox="0 0 20 20" fill="none" xmlns="http://www.w3.org/2000/svg">
<path fill-rule="evenodd" clip-rule="evenodd" d="M11.25 2.5C11.25 2.16848 11.1183 1.85054 10.8839 1.61612C10.6495 1.3817 10.3315 1.25 10 1.25C9.66848 1.25 9.35054 1.3817 9.11612 1.61612C8.8817 1.85054 8.75 2.16848 8.75 2.5V10.8333C8.75 11.1649 8.8817 11.4828 9.11612 11.7172C9.35054 11.9516 9.66848 12.0833 10 12.0833C10.3315 12.0833 10.6495 11.9516 10.8839 11.7172C11.1183 11.4828 11.25 11.1649 11.25 10.8333V2.5ZM6.545 4.79167C6.6818 4.70078 6.79935 4.58384 6.89095 4.44753C6.98255 4.31121 7.0464 4.15819 7.07887 3.99719C7.11133 3.8362 7.11176 3.67039 7.08014 3.50923C7.04852 3.34807 6.98547 3.19471 6.89459 3.05792C6.8037 2.92112 6.68676 2.80357 6.55044 2.71197C6.41413 2.62037 6.26111 2.55652 6.10011 2.52405C5.93912 2.49159 5.77331 2.49116 5.61215 2.52278C5.45098 2.5544 5.29763 2.61745 5.16084 2.70833C3.95749 3.50623 2.97051 4.58977 2.28808 5.86216C1.60564 7.13454 1.249 8.55616 1.25 10C1.25 14.8325 5.1675 18.75 10 18.75C14.8325 18.75 18.75 14.8325 18.75 10C18.75 6.955 17.1942 4.275 14.8392 2.70833C14.5629 2.52489 14.2251 2.45871 13.9 2.52435C13.575 2.58999 13.2893 2.78207 13.1058 3.05833C12.9224 3.3346 12.8562 3.67242 12.9219 3.99749C12.9875 4.32255 13.1796 4.60823 13.4558 4.79167C14.5747 5.53387 15.4247 6.61663 15.8802 7.87964C16.3357 9.14264 16.3723 10.5187 15.9847 11.8042C15.5971 13.0897 14.8059 14.2161 13.7281 15.0168C12.6504 15.8175 11.3435 16.2499 10.0008 16.2499C8.65821 16.2499 7.35128 15.8175 6.27354 15.0168C5.1958 14.2161 4.40455 13.0897 4.01695 11.8042C3.62934 10.5187 3.66599 9.14264 4.12146 7.87964C4.57693 6.61663 5.42618 5.53387 6.545 4.79167Z" fill="#5479EE"/>
</svg>
