<svg width="24" height="24" viewBox="0 0 24 24" fill="none" xmlns="http://www.w3.org/2000/svg">
<path d="M1.5 6C1.5 5.60218 1.65804 5.22064 1.93934 4.93934C2.22064 4.65804 2.60218 4.5 3 4.5C3.39782 4.5 3.77936 4.65804 4.06066 4.93934C4.34196 5.22064 4.5 5.60218 4.5 6V18C4.5 18.3978 4.34196 18.7794 4.06066 19.0607C3.77936 19.342 3.39782 19.5 3 19.5C2.60218 19.5 2.22064 19.342 1.93934 19.0607C1.65804 18.7794 1.5 18.3978 1.5 18V6ZM19.5 6C19.5 5.60218 19.658 5.22064 19.9393 4.93934C20.2206 4.65804 20.6022 4.5 21 4.5C21.3978 4.5 21.7794 4.65804 22.0607 4.93934C22.342 5.22064 22.5 5.60218 22.5 6V18C22.5 18.3978 22.342 18.7794 22.0607 19.0607C21.7794 19.342 21.3978 19.5 21 19.5C20.6022 19.5 20.2206 19.342 19.9393 19.0607C19.658 18.7794 19.5 18.3978 19.5 18V6ZM18 6.75H6V17.25H18V6.75Z" fill="white"/>
</svg>
