<svg width="24" height="24" viewBox="0 0 24 24" fill="none" xmlns="http://www.w3.org/2000/svg">
<path d="M6 7.5C4.80774 7.50395 3.66545 7.97933 2.82239 8.82239C1.97933 9.66545 1.50395 10.8077 1.5 12C1.5 13.0875 1.7295 14.1 2.31 14.934C2.721 15.5295 3.429 15.879 4.104 16.254C4.1115 17.439 4.0965 17.73 3.1605 19.2885C2.55 20.3055 3.726 21.453 4.728 20.8185C6.855 19.4655 8.304 18.255 9.237 16.8285C10.17 15.405 10.5 13.812 10.5 12C10.498 10.8071 10.0233 9.66369 9.17979 8.82021C8.33631 7.97673 7.19287 7.50198 6 7.5ZM18 7.5C16.8077 7.50395 15.6654 7.97933 14.8224 8.82239C13.9793 9.66545 13.504 10.8077 13.5 12C13.5 13.0875 13.7295 14.1 14.31 14.934C14.721 15.5295 15.429 15.879 16.104 16.254C16.1115 17.439 16.098 17.73 15.1605 19.2885C14.55 20.3055 15.726 21.453 16.728 20.8185C18.855 19.4655 20.304 18.255 21.237 16.8285C22.17 15.405 22.5 13.812 22.5 12C22.498 10.8071 22.0233 9.66369 21.1798 8.82021C20.3363 7.97673 19.1929 7.50198 18 7.5Z" fill="#4C524F"/>
</svg>
