<svg width="24" height="24" viewBox="0 0 24 24" fill="none" xmlns="http://www.w3.org/2000/svg">
<path d="M19.4531 8.01562L20.25 6.23438L21.9844 5.4375C22.4062 5.29688 22.4062 4.73438 21.9844 4.54688L20.25 3.75L19.4531 2.01562C19.2656 1.59375 18.75 1.59375 18.5625 2.01562L17.7656 3.75L15.9844 4.54688C15.6094 4.73438 15.6094 5.25 15.9844 5.4375L17.7656 6.23438L18.5625 8.01562C18.7031 8.39062 19.2656 8.39062 19.4531 8.01562ZM11.4844 9.51562L9.89062 6C9.5625 5.20312 8.4375 5.20312 8.10938 6L6.51562 9.51562L3 11.1094C2.20312 11.4375 2.20312 12.5625 3 12.8906L6.51562 14.4844L8.10938 18C8.4375 18.7969 9.5625 18.7969 9.89062 18L11.4844 14.4844L15 12.8906C15.7969 12.5625 15.7969 11.4375 15 11.1094L11.4844 9.51562ZM18.5625 15.9844L17.7656 17.7656L15.9844 18.5625C15.6094 18.7031 15.6094 19.2656 15.9844 19.4531L17.7656 20.25L18.5625 21.9844C18.7031 22.4062 19.2656 22.4062 19.4531 21.9844L20.25 20.25L21.9844 19.4531C22.4062 19.2656 22.4062 18.75 21.9844 18.5625L20.25 17.7656L19.4531 15.9844C19.2656 15.6094 18.7031 15.6094 18.5625 15.9844Z" fill="#4F46E5"/>
</svg>
