<svg width="14" height="14" viewBox="0 0 14 14" fill="none" xmlns="http://www.w3.org/2000/svg">
<path d="M1.33333 13.35C0.966667 13.35 0.652778 13.2194 0.391667 12.9583C0.130556 12.6972 0 12.3833 0 12.0166V2.68331C0 2.31664 0.130556 2.00275 0.391667 1.74164C0.652778 1.48053 0.966667 1.34997 1.33333 1.34997H7.28333L5.95 2.68331H1.33333V12.0166H10.6667V7.38331L12 6.04998V12.0166C12 12.3833 11.8694 12.6972 11.6083 12.9583C11.3472 13.2194 11.0333 13.35 10.6667 13.35H1.33333ZM4 9.34998V6.51664L10.1167 0.399975C10.25 0.266642 10.4 0.166641 10.5667 0.0999746C10.7333 0.033308 10.9 -2.47955e-05 11.0667 -2.47955e-05C11.2444 -2.47955e-05 11.4139 0.033308 11.575 0.0999746C11.7361 0.166641 11.8833 0.266642 12.0167 0.399975L12.95 1.34997C13.0722 1.48331 13.1667 1.63053 13.2333 1.79164C13.3 1.95275 13.3333 2.11664 13.3333 2.28331C13.3333 2.44998 13.3028 2.61386 13.2417 2.77497C13.1806 2.93609 13.0833 3.08331 12.95 3.21664L6.83333 9.34998H4ZM5.33333 8.01664H6.26667L10.1333 4.14997L9.66667 3.68331L9.18333 3.21664L5.33333 7.06664V8.01664Z" fill="#6B7280"/>
</svg>
