<svg width="14" height="14" viewBox="0 0 14 14" fill="none" xmlns="http://www.w3.org/2000/svg">
<path d="M6.65333 0C3.01333 0 0.0466668 2.96667 0.0466668 6.60667C0.0466668 7.77333 0.353333 8.9 0.926667 9.90667L0 13.2933L3.5 12.3667C4.46667 12.9067 5.53333 13.2133 6.65333 13.2133C10.2933 13.2133 13.26 10.2467 13.26 6.60667C13.26 4.84667 12.5733 3.18667 11.3267 1.94C10.08 0.686667 8.42 0 6.65333 0ZM6.65333 12.0667C5.63333 12.0667 4.63333 11.7867 3.76 11.2733L3.51333 11.1267L1.56667 11.6867L2.14 9.8L1.98667 9.54667C1.42 8.62 1.12667 7.58 1.12667 6.60667C1.12667 3.57333 3.62 1.08 6.65333 1.08C8.14667 1.08 9.51333 1.65333 10.5533 2.69333C11.5933 3.73333 12.18 5.1 12.18 6.60667C12.18 9.64 9.68667 12.0667 6.65333 12.0667ZM9.63333 8.32667C9.48 8.25333 8.67333 7.85333 8.52667 7.8C8.38667 7.74667 8.28 7.72 8.17333 7.87333C8.06667 8.02667 7.72 8.42667 7.62667 8.52667C7.53333 8.63333 7.44 8.64667 7.28667 8.56667C7.13333 8.49333 6.59333 8.3 5.94 7.72C5.44 7.28 5.10667 6.74 5.01333 6.58667C4.92 6.43333 4.99333 6.35333 5.06667 6.28C5.13333 6.20667 5.22 6.08667 5.30667 5.98667C5.39333 5.88667 5.42 5.80667 5.47333 5.70667C5.52667 5.6 5.5 5.50667 5.45333 5.43333C5.40667 5.36 5.10667 4.58 4.98 4.26C4.84667 3.94 4.72 3.98667 4.61333 3.98667C4.51333 3.98667 4.40667 3.98667 4.3 3.98667C4.19333 3.98667 4.03333 4.04 3.9 4.19333C3.76 4.34667 3.36 4.71333 3.36 5.46667C3.36 6.22 3.92 6.93333 4.01333 7.03333C4.10667 7.14 5.10667 8.68667 6.63333 9.32667C7.00667 9.49333 7.3 9.59333 7.52667 9.66C7.88 9.75333 8.19333 9.72667 8.43333 9.67333C8.7 9.61333 9.37333 9.24 9.50667 8.85333C9.64667 8.46667 9.64667 8.14 9.63333 8.08667C9.62 8.02667 9.56667 8.02667 9.48 7.95333L9.63333 8.32667Z" fill="#111418"/>
</svg>
